<svg width="53" height="49" viewBox="0 0 53 49" fill="none" xmlns="http://www.w3.org/2000/svg">
<path d="M4.3125 44.5625V4.3125V16.7634V15.2598V44.5625ZM10.7813 26.5938H25.9469C26.0245 25.8161 26.1951 25.0678 26.4586 24.3491C26.7217 23.6303 27.0487 22.9411 27.4397 22.2812H10.7813V26.5938ZM10.7813 38.0938H21.4295C22.0783 37.3563 22.8009 36.7344 23.5973 36.2279C24.3932 35.7209 25.2279 35.3036 26.1014 34.9758C25.9835 34.7985 25.8803 34.6069 25.7916 34.4008C25.7035 34.1943 25.6299 33.9878 25.571 33.7812H10.7813V38.0938ZM10.7813 15.0938H38.0938V10.7812H10.7813V15.0938ZM5.19728 48.875C3.74493 48.875 2.51563 48.3719 1.50938 47.3656C0.503125 46.3594 0 45.1301 0 43.6777V5.19728C0 3.74493 0.503125 2.51563 1.50938 1.50938C2.51563 0.503125 3.74493 0 5.19728 0H43.6777C45.1301 0 46.3594 0.503125 47.3656 1.50938C48.3719 2.51563 48.875 3.74493 48.875 5.19728V20.8107C48.3331 19.9333 47.7073 19.1583 46.9976 18.4855C46.2885 17.8128 45.4768 17.2387 44.5625 16.7634V5.19728C44.5625 4.97591 44.4703 4.77322 44.2858 4.58922C44.1018 4.40474 43.8991 4.3125 43.6777 4.3125H5.19728C4.97591 4.3125 4.77322 4.40474 4.58922 4.58922C4.40474 4.77322 4.3125 4.97591 4.3125 5.19728V43.6777C4.3125 43.8991 4.40474 44.1018 4.58922 44.2858C4.77322 44.4703 4.97591 44.5625 5.19728 44.5625H18.7759C18.7467 44.7393 18.7246 44.9161 18.7098 45.0929C18.6949 45.2702 18.6875 45.4473 18.6875 45.6241V48.875H5.19728ZM38.6465 34.5C36.8553 34.5 35.3294 33.8697 34.0688 32.609C32.8081 31.3483 32.1777 29.8224 32.1777 28.0312C32.1777 26.2396 32.8081 24.7137 34.0688 23.4535C35.3294 22.1928 36.8553 21.5625 38.6465 21.5625C40.4381 21.5625 41.964 22.1928 43.2242 23.4535C44.4849 24.7137 45.1152 26.2396 45.1152 28.0312C45.1152 29.8224 44.4849 31.3483 43.2242 32.609C41.964 33.8697 40.4381 34.5 38.6465 34.5ZM24.9902 48.875V45.5688C24.9902 44.5476 25.2528 43.6104 25.778 42.757C26.3036 41.9041 27.0437 41.2896 27.9982 40.9134C29.6676 40.2133 31.3972 39.6882 33.1868 39.3379C34.9765 38.9876 36.7964 38.8125 38.6465 38.8125C40.4601 38.8125 42.2615 38.9876 44.0508 39.3379C45.8404 39.6882 47.5887 40.2133 49.2955 40.9134C50.25 41.2896 50.9898 41.9041 51.515 42.757C52.0401 43.6104 52.3027 44.5476 52.3027 45.5688V48.875H24.9902Z" fill="#0F1627"/>
</svg>
