<svg width="52" height="58" viewBox="0 0 52 58" fill="none" xmlns="http://www.w3.org/2000/svg">
<path d="M25.6559 7.04375C30.7217 7.04375 35.5009 8.13385 39.9935 10.3141C44.4857 12.4943 48.2321 15.6357 51.2326 19.7383C51.5312 20.114 51.6251 20.4559 51.5144 20.764C51.4037 21.0716 51.214 21.3268 50.9451 21.5294C50.6759 21.7321 50.373 21.8224 50.0366 21.8004C49.7003 21.7788 49.4058 21.5927 49.1533 21.2419C46.481 17.4675 43.0636 14.5815 38.9011 12.5839C34.739 10.5862 30.324 9.58741 25.6559 9.58741C21.008 9.58741 16.6385 10.5953 12.5474 12.6112C8.45576 14.6275 5.05919 17.5044 2.35764 21.2419C2.08835 21.6363 1.78049 21.8483 1.43405 21.878C1.08761 21.9073 0.779748 21.8114 0.510457 21.5905C0.239728 21.3878 0.0753729 21.1344 0.0173937 20.8301C-0.0405855 20.5258 0.0463836 20.2098 0.2783 19.8821C3.26782 15.846 6.98496 12.6974 11.4297 10.4363C15.8749 8.17458 20.617 7.04375 25.6559 7.04375ZM25.6574 13.8C32.0883 13.8 37.6138 15.9431 42.2339 20.2292C46.8545 24.5154 49.1648 29.8253 49.1648 36.1589C49.1648 38.5154 48.3303 40.4831 46.6614 42.062C44.9925 43.6408 42.9594 44.4303 40.5621 44.4303C38.1734 44.4303 36.1185 43.6408 34.3974 42.062C32.6757 40.4831 31.8149 38.5154 31.8149 36.1589C31.8149 34.5407 31.2145 33.1741 30.0137 32.0591C28.8124 30.9441 27.3783 30.3866 25.7113 30.3866C24.0294 30.3866 22.5823 30.9417 21.37 32.0519C20.1582 33.1617 19.5523 34.5307 19.5523 36.1589C19.5523 40.8619 20.9484 44.7892 23.7405 47.9406C26.5326 51.0921 30.1088 53.2908 34.4692 54.5366C34.855 54.6631 35.1173 54.8739 35.2563 55.1691C35.3947 55.4643 35.4161 55.7805 35.3202 56.1178C35.2244 56.413 35.0512 56.671 34.8006 56.8919C34.55 57.1133 34.2184 57.1761 33.8058 57.0803C28.8958 55.8344 24.8689 53.3681 21.7251 49.6814C18.5808 45.9943 17.0086 41.4867 17.0086 36.1589C17.0086 33.7999 17.862 31.8243 19.5688 30.2321C21.2751 28.6398 23.3233 27.8437 25.7134 27.8437C28.103 27.8437 30.1412 28.6398 31.8278 30.2321C33.515 31.8243 34.3586 33.7999 34.3586 36.1589C34.3586 37.7871 34.9731 39.1561 36.2021 40.2658C37.4312 41.376 38.8816 41.9312 40.5535 41.9312C42.2248 41.9312 43.6539 41.3736 44.8408 40.2586C46.0277 39.1436 46.6211 37.777 46.6211 36.1589C46.6211 30.5536 44.5636 25.8424 40.4485 22.0254C36.333 18.2079 31.4186 16.2991 25.7055 16.2991C19.9924 16.2991 15.0857 18.2105 10.9855 22.0333C6.88481 25.8561 4.83446 30.5498 4.83446 36.1143C4.83446 37.2739 4.95616 38.7231 5.19958 40.462C5.44252 42.2005 5.96217 44.2197 6.75855 46.5197C6.88361 46.8958 6.87619 47.2286 6.73627 47.518C6.59635 47.8074 6.35318 48.024 6.00674 48.1678C5.6603 48.3115 5.33039 48.3082 5.01702 48.1577C4.70364 48.0068 4.48419 47.7595 4.35864 47.4159C3.62169 45.4916 3.09293 43.6164 2.77236 41.7903C2.45132 39.9637 2.2908 38.0866 2.2908 36.1589C2.2908 29.8253 4.58936 24.5154 9.18649 20.2292C13.7836 15.9431 19.2739 13.8 25.6574 13.8ZM25.7113 0C28.7535 0 31.7246 0.371354 34.6245 1.11406C37.5244 1.85677 40.3292 2.92292 43.0389 4.3125C43.4515 4.53387 43.6891 4.79838 43.7519 5.106C43.8147 5.41363 43.7833 5.71694 43.6577 6.01594C43.5327 6.31446 43.3161 6.54111 43.008 6.69588C42.7004 6.85065 42.353 6.82669 41.9658 6.624C39.4449 5.27467 36.8172 4.2574 34.0826 3.57219C31.3479 2.8865 28.553 2.54366 25.6976 2.54366C22.8907 2.54366 20.1364 2.88554 17.4349 3.56931C14.7328 4.25309 12.1324 5.27132 9.63355 6.624C9.34222 6.808 9.02788 6.84945 8.69055 6.74834C8.35322 6.64676 8.10717 6.43209 7.95239 6.10434C7.79762 5.77611 7.7545 5.47017 7.82302 5.1865C7.89106 4.90236 8.08896 4.65894 8.41671 4.45625C11.0818 3.00054 13.8759 1.89391 16.7988 1.13634C19.7217 0.378781 22.6925 0 25.7113 0ZM25.7127 20.7999C30.1311 20.7999 33.9225 22.2789 37.0869 25.2367C40.2513 28.1946 41.8335 31.8354 41.8335 36.1589C41.8335 36.5403 41.7169 36.8477 41.4835 37.081C41.2506 37.3139 40.9435 37.4303 40.5621 37.4303C40.2339 37.4303 39.9399 37.3139 39.6802 37.081C39.42 36.8477 39.2899 36.5403 39.2899 36.1589C39.2899 32.5282 37.9468 29.4846 35.2606 27.0279C32.5739 24.5712 29.391 23.3428 25.712 23.3428C22.0329 23.3428 18.8647 24.5712 16.2072 27.0279C13.5498 29.4846 12.2211 32.5275 12.2211 36.1567C12.2211 40.0763 12.901 43.3943 14.2609 46.1107C15.6212 48.8271 17.5951 51.5677 20.1826 54.3325C20.4701 54.6233 20.6 54.9374 20.5722 55.2748C20.5444 55.6121 20.4146 55.8969 20.1826 56.1293C19.932 56.38 19.6381 56.5098 19.3007 56.5189C18.9634 56.528 18.6601 56.3982 18.3908 56.1293C15.6193 53.1954 13.4743 50.1783 11.9558 47.0781C10.4369 43.9784 9.67739 40.3384 9.67739 36.1582C9.67739 31.8351 11.2452 28.1946 14.3809 25.2367C17.517 22.2789 21.2943 20.7999 25.7127 20.7999ZM25.6063 34.8874C25.9858 34.8874 26.2935 35.0146 26.5292 35.2691C26.7654 35.523 26.8836 35.8196 26.8836 36.1589C26.8836 39.8092 28.191 42.8025 30.8058 45.1389C33.4211 47.4749 36.4815 48.6428 39.9871 48.6428C40.3666 48.6428 40.8199 48.6189 41.347 48.571C41.874 48.5231 42.4157 48.4512 42.972 48.3553C43.33 48.2782 43.6369 48.329 43.8928 48.5077C44.1491 48.6865 44.3252 48.9656 44.4211 49.3451C44.5169 49.6829 44.4541 49.9783 44.2327 50.2313C44.0118 50.4848 43.7282 50.6594 43.3817 50.7553C42.685 50.9393 42.0223 51.0571 41.3937 51.1089C40.7655 51.1606 40.2966 51.1865 39.9871 51.1865C35.7776 51.1865 32.1175 49.7619 29.0067 46.9128C25.8955 44.0642 24.3399 40.4795 24.3399 36.1589C24.3399 35.8196 24.4561 35.523 24.6885 35.2691C24.9204 35.0146 25.2264 34.8874 25.6063 34.8874Z" fill="#0F1627"/>
</svg>
