<svg width="164" height="28" viewBox="0 0 164 28" fill="none" xmlns="http://www.w3.org/2000/svg">
<g clip-path="url(#clip0_233_84)">
<path fill-rule="evenodd" clip-rule="evenodd" d="M72.2076 5.86328H85.356L71.141 27.0764L67.5625 24.6784L77.284 10.171H72.2076V5.86328Z" fill="#00D76C"/>
<path fill-rule="evenodd" clip-rule="evenodd" d="M92.9268 8.6034L83.0888 23.0926H88.6096V27.4003H74.957L89.363 6.18359L92.9268 8.6034Z" fill="#00D76C"/>
<path d="M43.9025 21.9277C45.2235 23.2487 46.9323 23.9093 49.0287 23.9093C51.1251 23.9093 52.8338 23.2487 54.1548 21.9277C55.4758 20.6067 56.1364 18.898 56.1364 16.8016C56.1364 14.7052 55.4758 12.9964 54.1548 11.6754C52.8338 10.3544 51.1251 9.69387 49.0287 9.69387C46.9323 9.69387 45.2235 10.3544 43.9025 11.6754C42.5815 12.9964 41.921 14.7052 41.921 16.8016C41.921 18.898 42.5815 20.6067 43.9025 21.9277ZM56.1364 6.03233H60.444V27.5708H56.1364V24.7277C54.0687 26.9103 51.484 28.0016 48.3825 28.0016C45.3097 28.0016 42.7538 26.939 40.7148 24.8139C38.6471 22.66 37.6133 19.9893 37.6133 16.8016C37.6133 13.6139 38.6471 10.9431 40.7148 8.78926C42.7538 6.66413 45.3097 5.60156 48.3825 5.60156C51.484 5.60156 54.0687 6.69285 56.1364 8.87541V6.03233Z" fill="#101728"/>
<path d="M26.1358 6.03233V9.56464C27.3994 6.92259 29.6968 5.60156 33.0281 5.60156V9.90926C28.4333 9.90926 26.1358 12.0631 26.1358 16.3708V27.5708H21.8281V6.03233H26.1358Z" fill="#101728"/>
<path d="M9.54615 0V6.03077H14.7154V10.1231H9.54615V27.5692H5.23846V10.1231H0.5V6.03077H5.23846V1.29231L9.54615 0Z" fill="#101728"/>
<path d="M147.09 21.8416C148.411 23.1626 150.091 23.8231 152.13 23.8231C154.169 23.8231 155.849 23.1626 157.17 21.8416C158.491 20.5205 159.152 18.8405 159.152 16.8016C159.152 14.7626 158.491 13.0826 157.17 11.7616C155.849 10.4405 154.169 9.78003 152.13 9.78003C150.091 9.78003 148.411 10.4405 147.09 11.7616C145.769 13.0826 145.108 14.7626 145.108 16.8016C145.108 18.8405 145.769 20.5205 147.09 21.8416ZM144.032 8.78926C146.157 6.66413 148.856 5.60156 152.13 5.60156C155.404 5.60156 158.103 6.66413 160.228 8.78926C162.382 10.8857 163.459 13.5564 163.459 16.8016C163.459 20.0467 162.382 22.7175 160.228 24.8139C158.103 26.939 155.404 28.0016 152.13 28.0016C148.856 28.0016 146.157 26.939 144.032 24.8139C141.878 22.7175 140.801 20.0467 140.801 16.8016C140.801 13.5564 141.878 10.8857 144.032 8.78926Z" fill="#101728"/>
<path d="M117.392 9.2631C119.057 6.82208 121.47 5.60156 124.629 5.60156C127.271 5.60156 129.41 6.47746 131.047 8.22926C132.655 9.95233 133.459 12.1636 133.459 14.8631V27.5708H129.152V14.8631C129.152 13.2836 128.692 12.02 127.773 11.0723C126.826 10.1534 125.562 9.69387 123.982 9.69387C122.403 9.69387 121.139 10.1534 120.192 11.0723C119.273 12.02 118.813 13.2836 118.813 14.8631V27.5708H114.506V14.8631C114.506 13.2836 114.046 12.02 113.127 11.0723C112.179 10.1534 110.916 9.69387 109.336 9.69387C107.757 9.69387 106.493 10.1534 105.546 11.0723C104.627 12.02 104.167 13.2836 104.167 14.8631V27.5708H99.8594V6.03233H104.167V8.27233C105.747 6.49182 107.829 5.60156 110.413 5.60156C113.515 5.60156 115.841 6.82208 117.392 9.2631Z" fill="#101728"/>
</g>
<defs>
<clipPath id="clip0_233_84">
<rect width="163" height="28" fill="white" transform="translate(0.5)"/>
</clipPath>
</defs>
</svg>
