<svg width="52" height="52" viewBox="0 0 52 52" fill="none" xmlns="http://www.w3.org/2000/svg">
<path d="M24.25 40.6279C20.25 40.4196 16.875 38.8779 14.125 36.0029C11.375 33.1279 10 29.6696 10 25.6279C10 21.4613 11.4583 17.9196 14.375 15.0029C17.2917 12.0863 20.8333 10.6279 25 10.6279C29.0417 10.6279 32.5 12.0029 35.375 14.7529C38.25 17.5029 39.7917 20.8779 40 24.8779L34.75 23.3154C34.2083 21.0654 33.0417 19.2217 31.25 17.7842C29.4583 16.3467 27.375 15.6279 25 15.6279C22.25 15.6279 19.8958 16.6071 17.9375 18.5654C15.9792 20.5238 15 22.8779 15 25.6279C15 28.0029 15.7188 30.0863 17.1562 31.8779C18.5938 33.6696 20.4375 34.8363 22.6875 35.3779L24.25 40.6279ZM27.25 50.5029C26.875 50.5863 26.5 50.6279 26.125 50.6279H25C21.5417 50.6279 18.2917 49.9717 15.25 48.6592C12.2083 47.3467 9.5625 45.5654 7.3125 43.3154C5.0625 41.0654 3.28125 38.4196 1.96875 35.3779C0.65625 32.3363 0 29.0863 0 25.6279C0 22.1696 0.65625 18.9196 1.96875 15.8779C3.28125 12.8363 5.0625 10.1904 7.3125 7.94043C9.5625 5.69043 12.2083 3.90918 15.25 2.59668C18.2917 1.28418 21.5417 0.62793 25 0.62793C28.4583 0.62793 31.7083 1.28418 34.75 2.59668C37.7917 3.90918 40.4375 5.69043 42.6875 7.94043C44.9375 10.1904 46.7188 12.8363 48.0312 15.8779C49.3438 18.9196 50 22.1696 50 25.6279V26.7529C50 27.1279 49.9583 27.5029 49.875 27.8779L45 26.3779V25.6279C45 20.0446 43.0625 15.3154 39.1875 11.4404C35.3125 7.56543 30.5833 5.62793 25 5.62793C19.4167 5.62793 14.6875 7.56543 10.8125 11.4404C6.9375 15.3154 5 20.0446 5 25.6279C5 31.2113 6.9375 35.9404 10.8125 39.8154C14.6875 43.6904 19.4167 45.6279 25 45.6279H25.75L27.25 50.5029ZM46.3125 51.8779L35.625 41.1904L32.5 50.6279L25 25.6279L50 33.1279L40.5625 36.2529L51.25 46.9404L46.3125 51.8779Z" fill="#A8E2FF"/>
</svg>
