<svg width="53" height="46" viewBox="0 0 53 46" fill="none" xmlns="http://www.w3.org/2000/svg">
<path d="M6.12359 19.6289L6.13574 19.6037L6.11312 19.5873C4.91645 18.7215 3.93285 17.6352 3.16224 16.3282C2.39198 15.0218 1.93138 13.5747 1.78065 11.9864C1.50435 9.07504 2.30596 6.48538 4.18625 4.21554C6.06654 1.9457 8.4641 0.673404 11.3807 0.397585C14.2972 0.121766 16.8915 0.921985 19.1653 2.79897C21.4392 4.67595 22.7137 7.06927 22.99 9.98064C23.2663 12.892 22.4647 15.4817 20.5844 17.7515C18.7041 20.0213 16.3065 21.2936 13.39 21.5695C12.9923 21.6071 12.5925 21.6226 12.1906 21.6161C11.7888 21.6096 11.4072 21.579 11.0459 21.5243L11.0213 21.5206L11.0107 21.543L6.7103 30.6548C6.71026 30.6548 6.71022 30.6549 6.71018 30.655C6.2952 31.5038 6.21283 32.3128 6.4668 33.08C6.71973 33.844 7.16056 34.445 7.78922 34.8816C8.41768 35.318 9.13782 35.5314 9.94844 35.5222C10.7631 35.513 11.5204 35.1583 12.2199 34.4628L12.2203 34.4623L37.8705 7.86251C37.8706 7.86244 37.8706 7.86237 37.8707 7.8623C39.5804 6.14269 41.4566 5.26615 43.4999 5.22838C45.547 5.19054 47.3793 5.71796 48.9979 6.81031C50.6164 7.9025 51.7859 9.42631 52.5066 11.3831C53.2259 13.3359 53.0473 15.4306 51.9666 17.6695L47.7611 26.3709L47.749 26.3961L47.7716 26.4124C48.9683 27.2783 49.9519 28.3646 50.7225 29.6716C51.4927 30.978 51.9533 32.4251 52.1041 34.0134C52.3804 36.9248 51.5788 39.5144 49.6985 41.7843C47.8182 44.0541 45.4206 45.3264 42.5041 45.6022C39.5875 45.878 36.9932 45.0778 34.7194 43.2008C32.4456 41.3238 31.171 38.9305 30.8947 36.0192C30.6184 33.1078 31.4201 30.5181 33.3003 28.2483C35.1806 25.9784 37.5782 24.7061 40.4948 24.4303C40.8925 24.3927 41.2811 24.3782 41.6607 24.3868C42.0403 24.3954 42.4108 24.4271 42.7724 24.4818L42.7968 24.4855L42.8074 24.4633L47.1744 15.345C47.5895 14.4961 47.6719 13.687 47.4179 12.9198C47.165 12.1558 46.7242 11.5548 46.0955 11.1182C45.467 10.6818 44.7469 10.4684 43.9363 10.4776C43.1216 10.4868 42.3643 10.8415 41.6649 11.5369L41.6644 11.5374L16.0079 38.0709C14.298 39.7908 12.4338 40.6774 10.4146 40.7351C8.39194 40.7929 6.57186 40.2755 4.95326 39.1832C3.33476 38.0909 2.15405 36.5681 1.41119 34.6132C0.669943 32.6626 0.837472 30.5691 1.91815 28.3302L6.12359 19.6289ZM12.8924 16.3263C14.3639 16.1871 15.5748 15.5445 16.5233 14.3994C17.4719 13.2544 17.8768 11.9464 17.7374 10.4774C17.598 9.00835 16.9542 7.79956 15.8071 6.85269C14.6601 5.90583 13.3498 5.50161 11.8783 5.64078C10.4067 5.77994 9.1958 6.42258 8.24726 7.56763C7.29873 8.71268 6.89378 10.0207 7.0332 11.4897C7.17261 12.9587 7.81641 14.1675 8.96348 15.1144C10.1105 16.0612 11.4208 16.4654 12.8924 16.3263ZM42.0065 40.359C43.478 40.2198 44.6889 39.5772 45.6374 38.4322C46.586 37.2871 46.9909 35.9791 46.8515 34.5101C46.7121 33.0411 46.0683 31.8323 44.9212 30.8854C43.7742 29.9386 42.4639 29.5344 40.9924 29.6735C39.5208 29.8127 38.3099 30.4553 37.3614 31.6004C36.4128 32.7454 36.0079 34.0534 36.1473 35.5224C36.2867 36.9914 36.9305 38.2002 38.0776 39.1471C39.2246 40.094 40.5349 40.4982 42.0065 40.359Z" fill="#A8E2FF" stroke="#373737" stroke-width="0.0666667"/>
</svg>
