<svg width="530" height="775" viewBox="0 0 530 775" fill="none" xmlns="http://www.w3.org/2000/svg">
<path d="M492.586 340.785L475.694 356.074L477.049 383.445L529.94 445.422L513.067 506.406L497.53 526.524L486.402 500.775L469.853 525.722L446.891 542.806L375.104 611.215L356.207 615.242L322.614 659.505L307.42 667.541L299.308 701.345L257.03 706.174L236.301 774.926L230.212 753.205L176.119 591.898L156.02 607.263L44.7978 488.636L31.8566 450.728L25.5578 411.294L11.2614 408.087L2.1376 371.44L0.496094 346.416L55.1813 301.351H463.955L492.586 340.785Z" fill="#141926"/>
<path d="M492.586 340.785L476.114 357.105L477.049 383.445L529.94 445.422L513.067 506.406L497.53 526.524L486.402 500.775L469.853 525.722L446.891 542.806L375.104 611.215L356.207 615.242L322.614 659.505L307.42 667.541L299.308 701.345L257.03 706.174L236.301 774.926L230.212 753.205L178.027 591.898L155.428 607.263L46.7065 488.636L31.8566 450.728L27.4665 411.294L11.2614 408.087L4.04634 371.44L0.496094 346.416L55.1813 301.351H463.955L492.586 340.785Z" fill="#B1DBF1"/>
<path d="M0.496094 346.416L4.21813 371.44L11.5095 408.087L27.8101 411.294L32.2192 450.728L47.1646 488.636L156.02 607.263L178.734 591.898L228.857 754.007L233.839 770.422L234.068 769.83L233.8 739.405L222.157 717.302L211.01 685.254L225.975 597.529L209.674 569.356L226.643 529.12L225.631 512.209L254.148 477.603L267.394 397.933L271.803 344.011L267.757 301.351H55.1813L0.496094 346.416Z" fill="#141926"/>
<path d="M0.496094 346.416L2.1376 371.44L11.2614 408.087L25.5578 411.294L31.8566 450.728L44.7978 488.636L90.9128 549.429L156.02 607.263L179.249 593.387L230.212 753.205L236.301 774.926L236.53 774.354L229.258 737.267L222.863 717.455L212.232 685.331L224.963 597.529L208.758 569.356L225.65 529.12L224.639 512.209L252.983 477.603L266.154 397.933L270.544 344.011L266.497 301.351H55.1813L0.496094 346.416Z" fill="#141926"/>
<path d="M480.675 352.638L440.076 301.351H313.737L299.231 364.129L422.936 384.247L314.653 504.173L288.084 545.21L229.371 680.425L358.573 588.672L463.783 454.278L459.144 435.592L529.939 445.422L477.048 383.445L475.54 357.658L480.675 352.638Z" fill="#336D9D"/>
<path d="M215.036 301.351H84.9181L45.7891 440.688L82.055 476L62.4905 490.792L90.9115 549.429L156.018 607.263L179.248 593.387L185.795 617.647L149.185 498.275L159.034 376.746L215.036 301.351Z" fill="#336D9D"/>
<path d="M1.71484 364.988L2.13475 371.439L11.2585 408.068L56.9345 412.038L94.4792 445.116L123.587 477.889L82.4733 496.08L73.5404 513.506C73.5404 513.506 71.7844 541.374 90.929 549.41C108.05 556.606 155.444 586.248 155.444 586.248L172.317 591.879L217.344 713.618L190.221 569.738L171.936 540.763L176.898 465.311L139.544 435.726L118.51 353.039L140.747 301.332H66.2109L1.73392 364.969L1.71484 364.988Z" fill="#141926"/>
<path d="M230.02 678.974L418.049 502.951L391.498 416.085L394.896 301.351H312.973L298.352 364.129L422.401 384.247L313.488 504.173L287.11 545.21L230.02 678.974Z" fill="#141926"/>
<path d="M229.81 679.948L418.622 502.951L391.9 416.085L417.801 301.351H313.737L299.231 364.129L270.237 431.984L268.844 504.173L288.084 545.21L229.371 680.425L229.81 679.948Z" fill="#92CEF1"/>
<path d="M271.974 618.639L288.675 583.08L336.279 580.14L409.994 522.974L444.924 478.004L400.088 438.55L441.412 397.131L442.042 366.267L423.814 325.305L436.106 301.351H331.126L358.325 318.052L399.115 363.938L385.773 412.21L359.871 462.314L395.564 498.675L312.382 522.439L229.371 680.425L271.974 618.639Z" fill="#141926"/>
<path d="M227.809 672.275L258.806 505.681L238.994 509.708L227.809 672.275Z" fill="#141926"/>
<path d="M229.467 467.143L239.106 316.64L220.82 335.154L229.467 467.143Z" fill="#141926"/>
<path d="M198.966 513.029L205.589 391.5L195.416 433.34L184.746 537.976L198.966 513.029Z" fill="#141926"/>
<path d="M411.824 391.5L400.181 313.433L382.41 320.667L411.824 391.5Z" fill="#92CEF1"/>
<path d="M216.676 713.847L233.835 770.422L236.298 774.926L257.026 706.174L299.305 701.345L302.97 686.075L216.676 713.847Z" fill="#141926"/>
<path d="M316.333 598.846L229.371 680.425L305.568 675.271L307.419 667.541L322.613 659.505L356.206 615.242L375.103 611.214L379.894 595.066L316.333 598.846Z" fill="#141926"/>
<path d="M471.436 465.368L443.148 529.253L446.699 543.454L446.89 542.805L469.852 525.722L486.4 500.775L497.166 525.703L498.215 525.646L513.065 506.406L514.211 500.374L529.939 445.422L504.934 492.778L471.436 465.368Z" fill="#141926"/>
<path opacity="0.3" d="M0.496094 346.416L2.1376 371.44L16.9112 387.32L250.025 358.059L360.254 417.249L478.538 396.482L477.049 383.445L476.114 357.105L492.586 340.785L463.955 301.351H55.1813L0.496094 346.416Z" fill="#336D9D"/>
<path opacity="0.3" d="M55.1813 301.351L0.496094 346.416L2.1376 371.44L3.96999 371.707L286.291 349.947L477.049 383.579V383.445L476.114 357.105L492.586 340.785L463.955 301.351H55.1813Z" fill="#336D9D"/>
<path d="M71.4663 274.285L87.5951 265.505L91.7753 249.815L85.0184 214.274L101.128 163.941L115.959 152.412L126.591 167.186L142.395 152.87L164.307 158.406L183.643 119.162L201.699 116.853L210.079 91.4665L224.585 86.8474L243.271 67.4547L263.58 64.687L287.039 1.96603L298.319 14.4301L346.801 127.923L361.097 131.149L382.399 209.197L394.767 218.874L400.78 241.512L414.427 243.344L430.442 268.73L455.694 271.04L456.324 296.903H65.9883L71.4663 274.285Z" fill="#91DCFF"/>
<path d="M71.4663 272.567L85.7436 264.379L90.2864 249.548L83.4532 212.824L101.128 162.223L116.264 149.912L126.591 165.468L142.395 152.87L164.307 156.688L181.887 118.551L201.699 113.417L210.079 91.4665L224.585 83.4116L243.271 67.4546L263.58 61.2512L287.02 0L298.3 12.464L342.659 130.252L358.769 135.196L378.753 209.197L392.935 220.592L397.134 241.512L412.614 245.062L426.796 268.73L453.862 272.758L456.324 296.903H65.9883L71.4663 272.567Z" fill="#E1F5FE"/>
<path d="M71.4663 274.285L87.2134 264.913L91.7753 249.815L85.0184 214.274L101.128 163.941L115.959 152.412L126.591 167.186L142.395 152.87L164.307 158.406L183.643 119.162L201.699 116.853L210.079 91.4665L224.585 86.8474L243.271 67.4547L263.58 64.687L287.039 1.96603L298.319 14.4301L344.491 130.252L360.601 133.478L380.586 209.197L394.767 218.874L398.948 241.512L414.427 243.344L428.609 268.73L455.694 271.04L456.324 296.903H65.9883L71.4663 274.285Z" fill="#9ADDFB"/>
<path d="M455.677 271.04L428.439 268.73L414.181 243.344L398.625 241.512L394.407 218.874L380.129 209.197L360.03 133.478L343.825 130.252L297.462 14.43L289.388 4.56189L289.159 4.88637L301.031 39.2245L299.085 57.3002L314.641 76.2348L293.244 127.007L308.8 143.174L292.595 166.251L293.568 175.947L266.331 195.798L253.695 241.512L249.477 272.433L253.351 296.903H456.326L455.677 271.04Z" fill="#91DCFF"/>
<path d="M455.693 271.04L428.608 268.73L414.426 243.344L398.947 241.512L394.766 218.874L380.585 209.197L360.6 133.478L344.49 130.252L298.318 14.4301L287.038 1.96603L286.809 2.29052L300.685 38.4992L299.998 57.3002L315.478 76.2348L294.195 127.007L309.675 143.174L293.546 166.251L294.52 175.947L267.454 195.798L254.875 241.512L250.695 272.433L254.551 296.903H456.323L455.693 271.04Z" fill="#E4F3FF"/>
<path d="M82.8438 267.49L88.799 296.903H209.45L223.288 260.886L187.194 249.357L252.301 180.566L233.92 157.031L279.061 79.4606L199.429 132.084L148.18 209.197L108.86 219.905L85.0197 214.274L91.7766 249.815L87.7492 264.608L82.8438 267.49Z" fill="#E4F3FF"/>
<path d="M438.936 269.628L428.61 268.75L414.428 243.363L398.948 241.512L394.749 218.893L380.567 209.197L377.417 197.248L365.946 185.872C365.946 185.872 367.435 177.493 369.343 166.651L360.582 133.478L344.473 130.252L325.996 76.8647L327.37 142.945L344.835 159.57L340.102 202.841L375.757 219.81L352.108 267.242L374.631 296.903H445.788L438.898 269.628H438.936Z" fill="#84BEED"/>
<path d="M278.448 80.3004L191.849 181.253L173.449 231.09L131.934 296.903H210.153L224.125 260.886L187.707 249.357L253.405 180.566L234.872 157.031L278.448 80.3004Z" fill="#91DCFF"/>
<path d="M278.639 79.7469L191.295 181.253L173.067 231.09L131.934 296.903H209.447L223.286 260.886L187.191 249.357L252.298 180.566L233.917 157.031L279.059 79.4606L278.639 79.7469Z" fill="#C3EDFF"/>
<path d="M238.387 114.906L222.43 135.31L207.179 140.674L186.565 175.145L166.179 195.569L176.009 216.336L125.791 241.97L96.0334 259.664L104.317 283.16L92.5977 296.903H192.825L199.658 287.322L166.179 261L178.93 233.304L209.126 204.578L197.483 178.257L223.346 155.924L279.062 79.4606L238.387 114.906Z" fill="#84BEED"/>
<path d="M288.453 65.1642L258.867 160.715L277.783 158.406L288.453 65.1642Z" fill="#C3EDFF"/>
<path d="M289.903 201.81L280.684 288.123L298.168 277.511L289.903 201.81Z" fill="#4B8BBE"/>
<path d="M319.029 175.489L312.711 245.196L322.426 221.184L332.6 161.173L319.029 175.489Z" fill="#4B8BBE"/>
<path d="M154.059 245.196L126.879 289.975L143.867 285.814L154.059 245.196Z" fill="#4B8BBE"/>
<path d="M307.175 56.9757L289.385 4.56191L287.038 1.96603L263.579 64.687L243.27 67.4547L236.59 74.4024L307.175 56.9757Z" fill="#D1EFFD"/>
<path d="M221.131 127.007L236.611 107.519L227.411 83.927L224.586 86.8474L210.08 91.4665L201.7 116.853L183.644 119.162L179.082 128.42L221.131 127.007Z" fill="#D1EFFD"/>
<path d="M140.87 187.495L167.879 166.174L164.5 158.024L164.309 158.406L142.397 152.87L126.593 167.186L116.305 152.889L115.312 152.909L101.13 163.941L100.023 167.415L92.6172 190.549L108.88 171.767L140.87 187.495Z" fill="#D1EFFD"/>
<path opacity="0.3" d="M455.694 271.04L428.609 268.73L414.427 243.344L398.948 241.512L397.268 232.369L331.398 218.416L224.05 261L125.789 241.97L71.4663 274.285L65.9883 296.903H456.324L455.694 271.04Z" fill="#AEDBF0"/>
<path opacity="0.3" d="M317.062 296.903H456.323L455.674 271.059L428.608 268.749L428.055 267.776C408.07 270.257 388.143 272.796 388.143 272.796L317.043 296.922L317.062 296.903Z" fill="#AEDBF0"/>
<path opacity="0.3" d="M281.809 296.903L260.794 283.867L128.71 266.555L83.4922 296.903H281.809Z" fill="#AEDBF0"/>
</svg>
