<svg width="48" height="45" viewBox="0 0 48 45" fill="none" xmlns="http://www.w3.org/2000/svg">
<path d="M33.1113 43.1037L29.9961 40.7944L34.1178 35.0854L27.4219 32.9019L28.6087 29.1414L35.3444 31.3647V24.2782H39.2507V31.3647L45.9863 29.1414L47.1732 32.9019L40.4779 35.0854L44.5996 40.7944L41.4596 43.1037L37.2975 37.3693L33.1113 43.1037ZM4.82096 44.3856C3.50543 44.3856 2.39193 43.9298 1.48047 43.0184C0.569011 42.1069 0.113281 40.9934 0.113281 39.6779V4.82243C0.113281 3.50689 0.569011 2.39339 1.48047 1.48193C2.39193 0.570475 3.50543 0.114746 4.82096 0.114746H39.6764C40.992 0.114746 42.1055 0.570475 43.0169 1.48193C43.9284 2.39339 44.3841 3.50689 44.3841 4.82243V18.9852C43.7595 18.6614 43.1261 18.3966 42.4837 18.1909C41.8409 17.9856 41.1723 17.8179 40.4779 17.6877V4.82243C40.4779 4.58849 40.4028 4.39643 40.2526 4.24626C40.1024 4.09608 39.9104 4.021 39.6764 4.021H4.82096C4.58702 4.021 4.39497 4.09608 4.24479 4.24626C4.09462 4.39643 4.01953 4.58849 4.01953 4.82243V28.2599H14.957C15.3642 29.4652 16.0234 30.4978 16.9349 31.3576C17.8464 32.217 18.8915 32.8203 20.0703 33.1675C20.0234 33.8354 20.0035 34.5015 20.0104 35.1655C20.0169 35.83 20.077 36.4963 20.1908 37.1642C18.6612 36.8938 17.2422 36.327 15.9336 35.4637C14.625 34.6009 13.5082 33.5017 12.5833 32.1662H4.01953V39.6779C4.01953 39.9118 4.09462 40.1039 4.24479 40.2541C4.39497 40.4042 4.58702 40.4793 4.82096 40.4793H21.4173C21.7046 41.2002 22.0143 41.8821 22.3464 42.5249C22.6784 43.1677 23.0766 43.7879 23.541 44.3856H4.82096ZM4.82096 40.4793H4.01953H21.4173H4.82096ZM9.87891 13.8869H34.6185V9.98063H9.87891V13.8869ZM9.87891 22.4507H24.3822C25.2368 21.5423 26.1782 20.7625 27.2064 20.1115C28.2346 19.4604 29.3364 18.9381 30.5117 18.5444H9.87891V22.4507Z" fill="#0F1627"/>
</svg>
