<svg width="67" height="55" viewBox="0 0 67 55" fill="none" xmlns="http://www.w3.org/2000/svg">
<path d="M3.49089 54.927V20.9545C2.65339 20.4963 1.97873 19.8926 1.46693 19.1435C0.955122 18.3939 0.699219 17.5266 0.699219 16.5416C0.699219 15.5966 1.15915 14.4683 2.079 13.1567C2.99885 11.8451 4.1674 10.5128 5.58464 9.15975C7.00187 10.5128 8.17042 11.8451 9.09027 13.1567C10.0101 14.4683 10.4701 15.5966 10.4701 16.5416C10.4701 17.5266 10.2142 18.3939 9.70234 19.1435C9.19054 19.8926 8.51589 20.4963 7.67839 20.9545V33.9895H14.6576V27.7083C14.6576 26.5809 15.0254 25.5492 15.761 24.613C16.4966 23.6774 17.4995 23.1092 18.7697 22.9087H19.7363C18.9918 22.0642 18.4247 21.1274 18.0348 20.0982C17.6444 19.0695 17.4492 17.977 17.4492 16.8208C17.4492 15.0806 17.8645 13.4713 18.695 11.9926C19.5255 10.5135 20.6403 9.29539 22.0394 8.33831L33.5013 0.623535L44.9632 8.33831C46.3623 9.29539 47.4771 10.5135 48.3076 11.9926C49.1381 13.4713 49.5534 15.0806 49.5534 16.8208C49.5534 17.977 49.3582 19.0695 48.9678 20.0982C48.5779 21.1274 48.0108 22.0642 47.2663 22.9087H48.2329C49.5031 23.1092 50.506 23.6774 51.2416 24.613C51.9773 25.5492 52.3451 26.5809 52.3451 27.7083V33.9895H59.3242V20.9545C58.4867 20.4963 57.8121 19.8926 57.3003 19.1435C56.7885 18.3939 56.5326 17.5266 56.5326 16.5416C56.5326 15.5966 56.9925 14.4683 57.9123 13.1567C58.8322 11.8451 60.0007 10.5128 61.418 9.15975C62.8352 10.5128 64.0038 11.8451 64.9236 13.1567C65.8435 14.4683 66.3034 15.5966 66.3034 16.5416C66.3034 17.5266 66.0475 18.3939 65.5357 19.1435C65.0239 19.8926 64.3492 20.4963 63.5117 20.9545V54.927H36.9909V44.4583C36.9909 43.4882 36.6517 42.6642 35.9733 41.9863C35.2954 41.3079 34.4714 40.9687 33.5013 40.9687C32.5312 40.9687 31.7072 41.3079 31.0293 41.9863C30.3509 42.6642 30.0117 43.4882 30.0117 44.4583V54.927H3.49089ZM27.6388 22.8229H39.3638C41.0318 22.8229 42.4491 22.2394 43.6155 21.0725C44.7824 19.906 45.3659 18.4902 45.3659 16.825C45.3659 15.7841 45.1298 14.8217 44.6575 13.9377C44.1848 13.0537 43.5227 12.329 42.6712 11.7637L33.5013 5.6597L24.3314 11.7637C23.4799 12.329 22.8178 13.0537 22.3451 13.9377C21.8728 14.8217 21.6367 15.7841 21.6367 16.825C21.6367 18.4902 22.2202 19.906 23.3871 21.0725C24.5535 22.2394 25.9708 22.8229 27.6388 22.8229ZM7.67839 50.7395H25.8242V44.4583C25.8242 42.3259 26.5703 40.5132 28.0624 39.0201C29.5546 37.5275 31.3664 36.7812 33.4978 36.7812C35.6297 36.7812 37.4427 37.5275 38.9367 39.0201C40.4312 40.5132 41.1784 42.3259 41.1784 44.4583V50.7395H59.3242V38.177H48.1576V27.7083C48.1576 27.5115 48.0906 27.3458 47.9566 27.2114C47.8221 27.0774 47.6565 27.0104 47.4596 27.0104H19.543C19.3462 27.0104 19.1805 27.0774 19.0461 27.2114C18.9121 27.3458 18.8451 27.5115 18.8451 27.7083V38.177H7.67839V50.7395Z" fill="#0F1627"/>
</svg>
