<svg width="57" height="62" viewBox="0 0 57 62" fill="none" xmlns="http://www.w3.org/2000/svg">
<path d="M10.1911 62.0098V49.1088C6.96392 46.1364 4.45861 42.7955 2.67516 39.0863C0.891721 35.3776 0 31.5703 0 27.6643C0 20.056 2.64204 13.589 7.92613 8.26314C13.2108 2.93732 19.6275 0.274414 27.1763 0.274414C33.2955 0.274414 38.8255 2.15534 43.7665 5.9172C48.7075 9.67906 51.9118 14.5367 53.3793 20.4902L56.9012 34.5667C57.1271 35.4361 56.9657 36.2261 56.4171 36.9367C55.8685 37.6466 55.1367 38.0016 54.2218 38.0016H47.5585V49.6096C47.5585 51.1335 47.0212 52.438 45.9466 53.5229C44.872 54.6078 43.58 55.1503 42.0706 55.1503H33.9703V62.0098H30.5733V51.7206H42.0706C42.6803 51.7206 43.1814 51.5228 43.5738 51.1272C43.9655 50.7311 44.1614 50.2252 44.1614 49.6096V34.5718H53.3334L50.1062 21.2816C48.8041 16.0358 46.008 11.7949 41.7181 8.55896C37.4282 5.32242 32.581 3.70416 27.1763 3.70416C20.6087 3.70416 15.0036 6.02552 10.361 10.6682C5.71834 15.3116 3.39703 20.9578 3.39703 27.6069C3.39703 31.0252 4.09059 34.2726 5.47772 37.3491C6.86484 40.4261 8.83229 43.1611 11.3801 45.5539L13.5881 47.6049V62.0098H10.1911ZM25.2816 39.9806H29.071L29.319 36.814C30.2073 36.6426 31.0534 36.3436 31.8574 35.9172C32.6608 35.4907 33.3345 34.9368 33.8786 34.2555L36.6098 35.6402L38.5037 32.382L36.0213 30.535C36.3961 29.5942 36.5835 28.6533 36.5835 27.7124C36.5835 26.7715 36.3961 25.8306 36.0213 24.8897L38.5037 23.0428L36.6098 19.7845L33.8786 21.1693C33.3345 20.4879 32.6608 19.934 31.8574 19.5076C31.0534 19.0811 30.2073 18.7822 29.319 18.6107L29.071 15.4442H25.2816L25.0336 18.6107C24.1453 18.7822 23.2991 19.0811 22.4952 19.5076C21.6918 19.934 21.018 20.4879 20.4739 21.1693L17.7427 19.7845L15.8489 23.0428L18.3312 24.8897C17.9564 25.8306 17.769 26.7715 17.769 27.7124C17.769 28.6533 17.9564 29.5942 18.3312 30.535L15.8489 32.382L17.7427 35.6402L20.4739 34.2555C21.018 34.9368 21.6918 35.4907 22.4952 35.9172C23.2991 36.3436 24.1453 36.6426 25.0336 36.814L25.2816 39.9806ZM27.172 34.1105C25.4112 34.1105 23.9157 33.4881 22.6854 32.2431C21.4545 30.9981 20.8391 29.4864 20.8391 27.7081C20.8391 25.9303 21.4557 24.4204 22.6888 23.1782C23.9219 21.9355 25.4192 21.3142 27.1805 21.3142C28.9413 21.3142 30.4369 21.9367 31.6672 23.1817C32.898 24.4267 33.5134 25.9383 33.5134 27.7167C33.5134 29.4944 32.8969 31.0043 31.6638 32.2465C30.4306 33.4892 28.9334 34.1105 27.172 34.1105Z" fill="#0F1627"/>
</svg>
